<svg xmlns="http://www.w3.org/2000/svg" width="138" height="10" viewBox="0 0 138 10">
    <g fill="#000" fill-rule="nonzero">
        <path d="M8.872 4.5c2.005-.006 3.62-.773 3.62-2.212C12.493.766 10.533 0 8.003 0H0v.22h2.387v9.284H0v.218h8.923c3 0 4.492-1.274 4.492-2.578 0-1.775-2.151-2.65-4.543-2.644zM5.152.22h1.93c1.862 0 2.94.466 2.94 2.084 0 1.687-1.113 2.126-2.466 2.126H5.153V.22zm2.404 9.284H5.153v-4.87h2.314c1.872 0 3.241.306 3.241 2.5 0 1.797-1.614 2.37-3.152 2.37zM61.279 4.5c2.006-.006 3.622-.773 3.622-2.212C64.9.766 62.939 0 60.409 0h-8.002v.22h2.388v9.284h-2.388v.218h8.924c3 0 4.49-1.274 4.49-2.578 0-1.775-2.15-2.65-4.542-2.644zM57.56.22h1.929c1.863 0 2.94.466 2.94 2.084 0 1.687-1.112 2.126-2.465 2.126H57.56V.22zm2.404 9.284H57.56v-4.87h2.314c1.872 0 3.242.306 3.242 2.5 0 1.797-1.615 2.37-3.152 2.37zM26.763.22h2.466v6.23c0 2.24-2.096 3.062-4.335 3.062-1.794 0-3.696-.594-3.696-2.898V.221h2.408V0h-7.521v.22h2.367v6.394c0 2.72 3.622 3.342 5.951 3.342 2.82 0 5.14-1.038 5.14-3.507V.221h2.582V0h-5.362v.22zM48.961 9.627c-.706 0-1.157-.37-1.157-1.07V7.323c0-1.371-1.217-2.66-4.256-2.66 2.098 0 3.667-1.002 3.667-2.277 0-1.344-1.746-2.386-4.59-2.386h-8.277v.22h2.387v9.284h-2.387v.218h7.383v-.218H39.5V4.772h2.733c1.587 0 2.745.529 2.745 1.762v.669c0 2.04 1.884 2.753 3.453 2.753.842 0 1.372-.192 1.784-.48l-.166-.121c-.256.205-.56.272-1.089.272zm-7.334-5.074H39.5V.22h2.029c1.98 0 2.92.707 2.92 2.22 0 1.556-1.208 2.112-2.822 2.112zM101.167 9.627c-.706 0-1.157-.37-1.157-1.07V7.323c0-1.371-1.215-2.66-4.255-2.66 2.098 0 3.668-1.002 3.668-2.277 0-1.344-1.747-2.386-4.59-2.386h-8.279v.22h2.387v9.284h-2.387v.218h7.383v-.218h-2.23V4.772h2.733c1.587 0 2.746.529 2.746 1.762v.669c0 2.04 1.883 2.753 3.452 2.753.843 0 1.372-.192 1.785-.48l-.167-.121c-.254.205-.56.272-1.09.272zm-7.334-5.074h-2.126V.22h2.029c1.979 0 2.92.707 2.92 2.22 0 1.556-1.209 2.112-2.823 2.112zM119.254 9.627c-.706 0-1.157-.37-1.157-1.07V7.323c0-1.371-1.216-2.66-4.256-2.66 2.098 0 3.668-1.002 3.668-2.277 0-1.344-1.746-2.386-4.59-2.386h-8.278v.22h2.387v9.284h-2.387v.218h7.383v-.218h-2.23V4.772h2.733c1.587 0 2.745.529 2.745 1.762v.669c0 2.04 1.884 2.753 3.453 2.753.843 0 1.372-.192 1.785-.48l-.167-.121c-.255.205-.558.272-1.089.272zm-7.333-5.074h-2.127V.22h2.029c1.98 0 2.92.707 2.92 2.22 0 1.556-1.208 2.112-2.822 2.112zM78.03 9.504h-3.874V4.84h1.45c1.783 0 2.432 1.07 2.432 2.002h.294v-4.25h-.294c0 .947-.649 2.029-2.432 2.029h-1.45V.22h3.815c2.413 0 3.51 1.493 3.51 2.768h.314V.041L81.716 0H69.002v.22h2.408v9.284h-2.408v.218h13.735l.059-.04V6.459h-.294c0 1.413-1.315 3.045-4.472 3.045zM132.001 0v.22h2.621l-4.031 4.84-4.237-4.84h2.611V0h-8.108v.22h2.534l4.553 5.265v4.019h-2.407v.218h7.52v-.218h-2.407V5.43l4.362-5.21h2.138V0z"/>
    </g>
</svg>
